<mxfile host="app.diagrams.net" modified="2022-02-08T04:07:46.881Z" agent="5.0 (Windows NT 6.1; Win64; x64) AppleWebKit/537.36 (KHTML, like Gecko) Chrome/97.0.4692.71 Safari/537.36" etag="DxsVpUMEYmIly3NMB3bq" version="16.5.3" type="github">
  <diagram id="dTfErDaKb-WVKEVwzcfy" name="Page-1">
    <mxGraphModel dx="2009" dy="732" grid="1" gridSize="10" guides="1" tooltips="1" connect="1" arrows="1" fold="1" page="1" pageScale="1" pageWidth="827" pageHeight="1169" math="0" shadow="0">
      <root>
        <mxCell id="0" />
        <mxCell id="1" parent="0" />
        <mxCell id="za_h3nyaj_twxy0oM4vH-1" value="&lt;font style=&quot;font-size: 10px&quot;&gt;VerifyCI&lt;/font&gt;" style="rounded=1;whiteSpace=wrap;html=1;" vertex="1" parent="1">
          <mxGeometry x="100" y="110" width="60" height="90" as="geometry" />
        </mxCell>
        <mxCell id="za_h3nyaj_twxy0oM4vH-2" value="&lt;font style=&quot;font-size: 10px&quot;&gt;MergeCI&lt;/font&gt;" style="rounded=1;whiteSpace=wrap;html=1;" vertex="1" parent="1">
          <mxGeometry x="170" y="110" width="60" height="90" as="geometry" />
        </mxCell>
        <mxCell id="za_h3nyaj_twxy0oM4vH-3" value="&lt;font style=&quot;font-size: 10px&quot;&gt;产品安全CI&lt;/font&gt;" style="rounded=1;whiteSpace=wrap;html=1;" vertex="1" parent="1">
          <mxGeometry x="240" y="110" width="70" height="90" as="geometry" />
        </mxCell>
        <mxCell id="za_h3nyaj_twxy0oM4vH-4" value="个人/组件级CI" style="text;html=1;resizable=0;autosize=1;align=center;verticalAlign=middle;points=[];fillColor=none;strokeColor=none;rounded=0;fontSize=10;" vertex="1" parent="1">
          <mxGeometry x="80" y="60" width="90" height="20" as="geometry" />
        </mxCell>
        <mxCell id="za_h3nyaj_twxy0oM4vH-5" value="&lt;span style=&quot;font-size: 10px&quot;&gt;增量CI&lt;/span&gt;" style="rounded=1;whiteSpace=wrap;html=1;" vertex="1" parent="1">
          <mxGeometry x="354" y="110" width="60" height="90" as="geometry" />
        </mxCell>
        <mxCell id="za_h3nyaj_twxy0oM4vH-6" value="&lt;span style=&quot;font-size: 10px&quot;&gt;全量CI&lt;/span&gt;" style="rounded=1;whiteSpace=wrap;html=1;" vertex="1" parent="1">
          <mxGeometry x="420" y="110" width="60" height="90" as="geometry" />
        </mxCell>
        <mxCell id="za_h3nyaj_twxy0oM4vH-7" value="&lt;span style=&quot;font-size: 10px&quot;&gt;产品安全CI&lt;/span&gt;" style="rounded=1;whiteSpace=wrap;html=1;" vertex="1" parent="1">
          <mxGeometry x="490" y="110" width="60" height="90" as="geometry" />
        </mxCell>
        <mxCell id="za_h3nyaj_twxy0oM4vH-8" value="项目/平台级CI" style="text;html=1;resizable=0;autosize=1;align=center;verticalAlign=middle;points=[];fillColor=none;strokeColor=none;rounded=0;fontSize=10;" vertex="1" parent="1">
          <mxGeometry x="354" y="60" width="90" height="20" as="geometry" />
        </mxCell>
        <mxCell id="za_h3nyaj_twxy0oM4vH-9" value="&lt;span style=&quot;font-size: 10px&quot;&gt;暂时无&lt;/span&gt;" style="rounded=1;whiteSpace=wrap;html=1;" vertex="1" parent="1">
          <mxGeometry x="600" y="110" width="60" height="90" as="geometry" />
        </mxCell>
        <mxCell id="za_h3nyaj_twxy0oM4vH-11" value="跨项目/产品级CI" style="text;html=1;resizable=0;autosize=1;align=center;verticalAlign=middle;points=[];fillColor=none;strokeColor=none;rounded=0;fontSize=10;" vertex="1" parent="1">
          <mxGeometry x="600" y="60" width="100" height="20" as="geometry" />
        </mxCell>
        <mxCell id="za_h3nyaj_twxy0oM4vH-12" value="持续集成流水线:自动防护(FT/UT/ST)&lt;br&gt;-------------------------------------------&lt;br&gt;防护重点及方式:环境部署&amp;amp;自动化" style="text;html=1;resizable=0;autosize=1;align=center;verticalAlign=middle;points=[];fillColor=none;strokeColor=none;rounded=0;fontSize=10;" vertex="1" parent="1">
          <mxGeometry x="-130" y="125" width="210" height="40" as="geometry" />
        </mxCell>
        <mxCell id="za_h3nyaj_twxy0oM4vH-13" value="迭代常规领域交付:&lt;br&gt;需求验收&amp;amp;功能测试FT&amp;nbsp;&lt;br&gt;----------------------------------------------------&lt;br&gt;防护重点及方式:测试设计&amp;amp;自动化分层防护" style="text;html=1;resizable=0;autosize=1;align=center;verticalAlign=middle;points=[];fillColor=none;strokeColor=none;rounded=0;fontSize=10;" vertex="1" parent="1">
          <mxGeometry x="-150" y="260" width="240" height="50" as="geometry" />
        </mxCell>
        <mxCell id="za_h3nyaj_twxy0oM4vH-14" value="系统测试ST,专项测试,产品安全测试,联合测试:&amp;nbsp;&lt;br&gt;----------------------------------------------------&lt;br&gt;防护重点及方式:探索性测试,手工测试&amp;amp;自动化" style="text;html=1;resizable=0;autosize=1;align=center;verticalAlign=middle;points=[];fillColor=none;strokeColor=none;rounded=0;fontSize=10;" vertex="1" parent="1">
          <mxGeometry x="-150" y="405" width="260" height="40" as="geometry" />
        </mxCell>
        <mxCell id="za_h3nyaj_twxy0oM4vH-15" value="" style="endArrow=none;dashed=1;html=1;dashPattern=1 3;strokeWidth=2;rounded=0;fontSize=10;" edge="1" parent="1">
          <mxGeometry width="50" height="50" relative="1" as="geometry">
            <mxPoint x="80" y="200" as="sourcePoint" />
            <mxPoint x="80" y="10" as="targetPoint" />
          </mxGeometry>
        </mxCell>
        <mxCell id="za_h3nyaj_twxy0oM4vH-16" value="" style="endArrow=none;dashed=1;html=1;dashPattern=1 3;strokeWidth=2;rounded=0;fontSize=10;" edge="1" parent="1">
          <mxGeometry width="50" height="50" relative="1" as="geometry">
            <mxPoint x="330" y="200" as="sourcePoint" />
            <mxPoint x="330" y="40" as="targetPoint" />
          </mxGeometry>
        </mxCell>
        <mxCell id="za_h3nyaj_twxy0oM4vH-17" value="" style="endArrow=none;dashed=1;html=1;dashPattern=1 3;strokeWidth=2;rounded=0;fontSize=10;" edge="1" parent="1">
          <mxGeometry width="50" height="50" relative="1" as="geometry">
            <mxPoint x="570" y="200" as="sourcePoint" />
            <mxPoint x="570" y="40" as="targetPoint" />
          </mxGeometry>
        </mxCell>
        <mxCell id="za_h3nyaj_twxy0oM4vH-18" value="" style="endArrow=none;dashed=1;html=1;dashPattern=1 3;strokeWidth=2;rounded=0;fontSize=10;" edge="1" parent="1">
          <mxGeometry width="50" height="50" relative="1" as="geometry">
            <mxPoint x="730" y="200" as="sourcePoint" />
            <mxPoint x="730" y="20" as="targetPoint" />
          </mxGeometry>
        </mxCell>
        <mxCell id="za_h3nyaj_twxy0oM4vH-19" value="" style="endArrow=classic;startArrow=classic;html=1;rounded=0;fontSize=10;" edge="1" parent="1">
          <mxGeometry width="50" height="50" relative="1" as="geometry">
            <mxPoint x="-60" y="40" as="sourcePoint" />
            <mxPoint x="80" y="40" as="targetPoint" />
          </mxGeometry>
        </mxCell>
        <mxCell id="za_h3nyaj_twxy0oM4vH-20" value="" style="endArrow=classic;startArrow=classic;html=1;rounded=0;fontSize=10;" edge="1" parent="1">
          <mxGeometry width="50" height="50" relative="1" as="geometry">
            <mxPoint x="80" y="40" as="sourcePoint" />
            <mxPoint x="730" y="40" as="targetPoint" />
          </mxGeometry>
        </mxCell>
        <mxCell id="za_h3nyaj_twxy0oM4vH-21" value="" style="endArrow=classic;startArrow=classic;html=1;rounded=0;fontSize=10;" edge="1" parent="1">
          <mxGeometry width="50" height="50" relative="1" as="geometry">
            <mxPoint x="730" y="40" as="sourcePoint" />
            <mxPoint x="870" y="40" as="targetPoint" />
          </mxGeometry>
        </mxCell>
        <mxCell id="za_h3nyaj_twxy0oM4vH-22" value="&lt;b&gt;迭代N-1&lt;/b&gt;" style="text;html=1;resizable=0;autosize=1;align=center;verticalAlign=middle;points=[];fillColor=none;strokeColor=none;rounded=0;fontSize=10;" vertex="1" parent="1">
          <mxGeometry x="10" y="10" width="60" height="20" as="geometry" />
        </mxCell>
        <mxCell id="za_h3nyaj_twxy0oM4vH-23" value="&lt;b&gt;迭代N&lt;/b&gt;" style="text;html=1;resizable=0;autosize=1;align=center;verticalAlign=middle;points=[];fillColor=none;strokeColor=none;rounded=0;fontSize=10;" vertex="1" parent="1">
          <mxGeometry x="374" y="10" width="50" height="20" as="geometry" />
        </mxCell>
        <mxCell id="za_h3nyaj_twxy0oM4vH-24" value="&lt;b&gt;迭代N+1&lt;/b&gt;" style="text;html=1;resizable=0;autosize=1;align=center;verticalAlign=middle;points=[];fillColor=none;strokeColor=none;rounded=0;fontSize=10;" vertex="1" parent="1">
          <mxGeometry x="772" y="10" width="60" height="20" as="geometry" />
        </mxCell>
        <mxCell id="za_h3nyaj_twxy0oM4vH-25" value="完全通过" style="rounded=1;whiteSpace=wrap;html=1;fontSize=10;strokeColor=#009900;fillColor=#00CC00;" vertex="1" parent="1">
          <mxGeometry x="785" y="60" width="100" height="30" as="geometry" />
        </mxCell>
        <mxCell id="za_h3nyaj_twxy0oM4vH-87" style="edgeStyle=orthogonalEdgeStyle;rounded=1;orthogonalLoop=1;jettySize=auto;html=1;exitX=0;exitY=1;exitDx=0;exitDy=0;entryX=0.5;entryY=0;entryDx=0;entryDy=0;fontSize=10;fontColor=#330066;strokeColor=#990000;" edge="1" parent="1" source="za_h3nyaj_twxy0oM4vH-26" target="za_h3nyaj_twxy0oM4vH-29">
          <mxGeometry relative="1" as="geometry" />
        </mxCell>
        <mxCell id="za_h3nyaj_twxy0oM4vH-26" value="对内发布测试版本&lt;br&gt;(对内,snapshot)" style="rounded=1;whiteSpace=wrap;html=1;fontSize=10;fillColor=#5447FF;fontColor=#FFFFFF;" vertex="1" parent="1">
          <mxGeometry x="772" y="160" width="130" height="50" as="geometry" />
        </mxCell>
        <mxCell id="za_h3nyaj_twxy0oM4vH-27" value="" style="curved=1;endArrow=classic;html=1;rounded=0;fontSize=10;fontColor=#FFFFFF;entryX=1;entryY=0;entryDx=0;entryDy=0;exitX=1;exitY=0.5;exitDx=0;exitDy=0;" edge="1" parent="1" source="za_h3nyaj_twxy0oM4vH-25" target="za_h3nyaj_twxy0oM4vH-26">
          <mxGeometry width="50" height="50" relative="1" as="geometry">
            <mxPoint x="880" y="100" as="sourcePoint" />
            <mxPoint x="930" y="50" as="targetPoint" />
            <Array as="points">
              <mxPoint x="930" y="100" />
              <mxPoint x="750" y="120" />
            </Array>
          </mxGeometry>
        </mxCell>
        <mxCell id="za_h3nyaj_twxy0oM4vH-29" value="" style="rounded=1;whiteSpace=wrap;html=1;fontSize=10;fontColor=#FFFFFF;strokeColor=#009900;fillColor=#FFFFFF;" vertex="1" parent="1">
          <mxGeometry x="100" y="260" width="140" height="70" as="geometry" />
        </mxCell>
        <mxCell id="za_h3nyaj_twxy0oM4vH-30" value="&lt;font color=&quot;#330066&quot;&gt;需求验收&lt;br&gt;(FT/ST,手工+自动化)&lt;br&gt;&lt;/font&gt;" style="text;html=1;resizable=0;autosize=1;align=center;verticalAlign=middle;points=[];fillColor=none;strokeColor=none;rounded=0;fontSize=10;fontColor=#FFFFFF;" vertex="1" parent="1">
          <mxGeometry x="105" y="281.25" width="130" height="30" as="geometry" />
        </mxCell>
        <mxCell id="za_h3nyaj_twxy0oM4vH-31" value="" style="rounded=1;whiteSpace=wrap;html=1;fontSize=10;fontColor=#FFFFFF;strokeColor=#009900;fillColor=#FFFFFF;" vertex="1" parent="1">
          <mxGeometry x="299" y="265" width="221" height="60" as="geometry" />
        </mxCell>
        <mxCell id="za_h3nyaj_twxy0oM4vH-32" value="每天DOD功能回归(含功能,性能,可靠性)&lt;br&gt;(FT/ST,手工+自动化)" style="text;html=1;resizable=0;autosize=1;align=center;verticalAlign=middle;points=[];fillColor=none;strokeColor=none;rounded=0;fontSize=10;fontColor=#330066;" vertex="1" parent="1">
          <mxGeometry x="304" y="285" width="220" height="30" as="geometry" />
        </mxCell>
        <mxCell id="za_h3nyaj_twxy0oM4vH-33" value="" style="rounded=1;whiteSpace=wrap;html=1;fontSize=10;fontColor=#FFFFFF;strokeColor=#009900;fillColor=#FFFFFF;" vertex="1" parent="1">
          <mxGeometry x="580" y="270" width="170" height="60" as="geometry" />
        </mxCell>
        <mxCell id="za_h3nyaj_twxy0oM4vH-34" value="每两周全量功能回归&lt;br&gt;(FT/ST,手工+自动化)" style="text;html=1;resizable=0;autosize=1;align=center;verticalAlign=middle;points=[];fillColor=none;strokeColor=none;rounded=0;fontSize=10;fontColor=#330066;" vertex="1" parent="1">
          <mxGeometry x="580" y="285" width="130" height="30" as="geometry" />
        </mxCell>
        <mxCell id="za_h3nyaj_twxy0oM4vH-35" value="" style="rounded=1;whiteSpace=wrap;html=1;fontSize=10;fontColor=#FFFFFF;strokeColor=#009900;fillColor=#FFFFFF;" vertex="1" parent="1">
          <mxGeometry x="120" y="416.25" width="140" height="60" as="geometry" />
        </mxCell>
        <mxCell id="za_h3nyaj_twxy0oM4vH-36" value="&lt;font color=&quot;#330066&quot;&gt;专项系统测试&lt;/font&gt;&lt;br style=&quot;color: rgb(51 , 0 , 102)&quot;&gt;&lt;span style=&quot;color: rgb(51 , 0 , 102)&quot;&gt;(FT/ST,手工+自动化)&lt;/span&gt;&lt;font color=&quot;#330066&quot;&gt;&lt;br&gt;&lt;/font&gt;" style="text;html=1;resizable=0;autosize=1;align=center;verticalAlign=middle;points=[];fillColor=none;strokeColor=none;rounded=0;fontSize=10;fontColor=#FFFFFF;" vertex="1" parent="1">
          <mxGeometry x="135" y="440" width="130" height="30" as="geometry" />
        </mxCell>
        <mxCell id="za_h3nyaj_twxy0oM4vH-37" value="" style="rounded=1;whiteSpace=wrap;html=1;fontSize=10;fontColor=#FFFFFF;strokeColor=#009900;fillColor=#FFFFFF;" vertex="1" parent="1">
          <mxGeometry x="310" y="420" width="180" height="60" as="geometry" />
        </mxCell>
        <mxCell id="za_h3nyaj_twxy0oM4vH-38" value="安全测试(含安全扫描,渗透测试)&lt;br&gt;(FT/ST,手工+自动化)" style="text;html=1;resizable=0;autosize=1;align=center;verticalAlign=middle;points=[];fillColor=none;strokeColor=none;rounded=0;fontSize=10;fontColor=#330066;" vertex="1" parent="1">
          <mxGeometry x="309" y="440" width="180" height="30" as="geometry" />
        </mxCell>
        <mxCell id="za_h3nyaj_twxy0oM4vH-39" value="" style="rounded=1;whiteSpace=wrap;html=1;fontSize=10;fontColor=#FFFFFF;strokeColor=#009900;fillColor=#FFFFFF;" vertex="1" parent="1">
          <mxGeometry x="560" y="425" width="170" height="60" as="geometry" />
        </mxCell>
        <mxCell id="za_h3nyaj_twxy0oM4vH-40" value="跨项目联合测试&lt;br&gt;(ST/PT/ET,手工+自动化)" style="text;html=1;resizable=0;autosize=1;align=center;verticalAlign=middle;points=[];fillColor=none;strokeColor=none;rounded=0;fontSize=10;fontColor=#330066;" vertex="1" parent="1">
          <mxGeometry x="560" y="440" width="150" height="30" as="geometry" />
        </mxCell>
        <mxCell id="za_h3nyaj_twxy0oM4vH-41" value="完全通过" style="rounded=1;whiteSpace=wrap;html=1;fontSize=10;strokeColor=#009900;fillColor=#00CC00;" vertex="1" parent="1">
          <mxGeometry x="785" y="220" width="100" height="30" as="geometry" />
        </mxCell>
        <mxCell id="za_h3nyaj_twxy0oM4vH-44" value="完全通过" style="rounded=1;whiteSpace=wrap;html=1;fontSize=10;strokeColor=#009900;fillColor=#00CC00;" vertex="1" parent="1">
          <mxGeometry x="847" y="370" width="100" height="30" as="geometry" />
        </mxCell>
        <mxCell id="za_h3nyaj_twxy0oM4vH-45" value="对产品发商用版本&lt;br&gt;(每季度,release)" style="rounded=1;whiteSpace=wrap;html=1;fontSize=10;fillColor=#5447FF;fontColor=#FFFFFF;" vertex="1" parent="1">
          <mxGeometry x="832" y="440" width="130" height="50" as="geometry" />
        </mxCell>
        <mxCell id="za_h3nyaj_twxy0oM4vH-46" value="" style="curved=1;endArrow=classic;html=1;rounded=0;fontSize=10;fontColor=#FFFFFF;exitX=0.94;exitY=0.933;exitDx=0;exitDy=0;entryX=1;entryY=0;entryDx=0;entryDy=0;exitPerimeter=0;" edge="1" parent="1" source="za_h3nyaj_twxy0oM4vH-44" target="za_h3nyaj_twxy0oM4vH-45">
          <mxGeometry width="50" height="50" relative="1" as="geometry">
            <mxPoint x="895" y="415" as="sourcePoint" />
            <mxPoint x="912" y="493" as="targetPoint" />
            <Array as="points">
              <mxPoint x="930" y="403" />
              <mxPoint x="940" y="440" />
              <mxPoint x="880" y="430" />
            </Array>
          </mxGeometry>
        </mxCell>
        <mxCell id="za_h3nyaj_twxy0oM4vH-47" value="" style="endArrow=none;html=1;rounded=0;fontSize=10;fontColor=#330066;" edge="1" parent="1">
          <mxGeometry width="50" height="50" relative="1" as="geometry">
            <mxPoint x="-80" y="210" as="sourcePoint" />
            <mxPoint x="750" y="210" as="targetPoint" />
            <Array as="points" />
          </mxGeometry>
        </mxCell>
        <mxCell id="za_h3nyaj_twxy0oM4vH-48" value="" style="endArrow=none;html=1;rounded=0;fontSize=10;fontColor=#330066;" edge="1" parent="1">
          <mxGeometry width="50" height="50" relative="1" as="geometry">
            <mxPoint x="-80" y="354.5" as="sourcePoint" />
            <mxPoint x="750" y="354.5" as="targetPoint" />
            <Array as="points" />
          </mxGeometry>
        </mxCell>
        <mxCell id="za_h3nyaj_twxy0oM4vH-42" value="对产品发联调版本&lt;br&gt;(每迭代,alpha)" style="rounded=1;whiteSpace=wrap;html=1;fontSize=10;fillColor=#5447FF;fontColor=#FFFFFF;" vertex="1" parent="1">
          <mxGeometry x="832" y="300" width="130" height="50" as="geometry" />
        </mxCell>
        <mxCell id="za_h3nyaj_twxy0oM4vH-49" value="" style="curved=1;endArrow=none;html=1;rounded=0;fontSize=10;fontColor=#FFFFFF;exitX=1;exitY=0.5;exitDx=0;exitDy=0;" edge="1" parent="1">
          <mxGeometry width="50" height="50" relative="1" as="geometry">
            <mxPoint x="882" y="252.5" as="sourcePoint" />
            <mxPoint x="890" y="290" as="targetPoint" />
            <Array as="points">
              <mxPoint x="927" y="277.5" />
              <mxPoint x="790" y="260" />
            </Array>
          </mxGeometry>
        </mxCell>
        <mxCell id="za_h3nyaj_twxy0oM4vH-53" value="" style="rounded=0;whiteSpace=wrap;html=1;fontSize=10;fontColor=#330066;strokeColor=#009900;fillColor=#FFFFFF;" vertex="1" parent="1">
          <mxGeometry x="255" y="295" width="40" height="10" as="geometry" />
        </mxCell>
        <mxCell id="za_h3nyaj_twxy0oM4vH-54" value="" style="rounded=0;whiteSpace=wrap;html=1;fontSize=10;fontColor=#330066;strokeColor=#009900;fillColor=#FFFFFF;rotation=90;" vertex="1" parent="1">
          <mxGeometry x="255" y="295" width="40" height="10" as="geometry" />
        </mxCell>
        <mxCell id="za_h3nyaj_twxy0oM4vH-55" value="" style="rounded=0;whiteSpace=wrap;html=1;fontSize=10;fontColor=#330066;strokeColor=#009900;fillColor=#FFFFFF;" vertex="1" parent="1">
          <mxGeometry x="500.5" y="451.25" width="40" height="10" as="geometry" />
        </mxCell>
        <mxCell id="za_h3nyaj_twxy0oM4vH-56" value="" style="rounded=0;whiteSpace=wrap;html=1;fontSize=10;fontColor=#330066;strokeColor=#009900;fillColor=#FFFFFF;rotation=90;" vertex="1" parent="1">
          <mxGeometry x="499.5" y="448.75" width="40" height="12.5" as="geometry" />
        </mxCell>
        <mxCell id="za_h3nyaj_twxy0oM4vH-64" value="" style="rounded=0;whiteSpace=wrap;html=1;fontSize=10;fontColor=#330066;strokeColor=#009900;fillColor=#FFFFFF;" vertex="1" parent="1">
          <mxGeometry x="265" y="447.5" width="40" height="10" as="geometry" />
        </mxCell>
        <mxCell id="za_h3nyaj_twxy0oM4vH-65" value="" style="rounded=0;whiteSpace=wrap;html=1;fontSize=10;fontColor=#330066;strokeColor=#009900;fillColor=#FFFFFF;rotation=90;" vertex="1" parent="1">
          <mxGeometry x="264" y="445" width="40" height="12.5" as="geometry" />
        </mxCell>
        <mxCell id="za_h3nyaj_twxy0oM4vH-66" value="" style="rounded=0;whiteSpace=wrap;html=1;fontSize=10;fontColor=#330066;strokeColor=#009900;fillColor=#FFFFFF;" vertex="1" parent="1">
          <mxGeometry x="531.25" y="300" width="40" height="10" as="geometry" />
        </mxCell>
        <mxCell id="za_h3nyaj_twxy0oM4vH-67" value="" style="rounded=0;whiteSpace=wrap;html=1;fontSize=10;fontColor=#330066;strokeColor=#009900;fillColor=#FFFFFF;rotation=90;" vertex="1" parent="1">
          <mxGeometry x="532.5" y="298.75" width="40" height="12.5" as="geometry" />
        </mxCell>
        <mxCell id="za_h3nyaj_twxy0oM4vH-68" value="" style="rounded=1;whiteSpace=wrap;html=1;fontSize=10;fontColor=#330066;strokeColor=#009900;fillColor=#FFFFFF;" vertex="1" parent="1">
          <mxGeometry x="760" y="278.75" width="40" height="10" as="geometry" />
        </mxCell>
        <mxCell id="za_h3nyaj_twxy0oM4vH-69" value="" style="rounded=1;whiteSpace=wrap;html=1;fontSize=10;fontColor=#330066;strokeColor=#009900;fillColor=#FFFFFF;" vertex="1" parent="1">
          <mxGeometry x="760" y="300" width="40" height="10" as="geometry" />
        </mxCell>
        <mxCell id="za_h3nyaj_twxy0oM4vH-70" value="" style="rounded=1;whiteSpace=wrap;html=1;fontSize=10;fontColor=#330066;strokeColor=#009900;fillColor=#FFFFFF;" vertex="1" parent="1">
          <mxGeometry x="740" y="445" width="40" height="10" as="geometry" />
        </mxCell>
        <mxCell id="za_h3nyaj_twxy0oM4vH-71" value="" style="rounded=1;whiteSpace=wrap;html=1;fontSize=10;fontColor=#330066;strokeColor=#009900;fillColor=#FFFFFF;" vertex="1" parent="1">
          <mxGeometry x="740" y="466.25" width="40" height="10" as="geometry" />
        </mxCell>
        <mxCell id="za_h3nyaj_twxy0oM4vH-88" style="edgeStyle=orthogonalEdgeStyle;orthogonalLoop=1;jettySize=auto;html=1;exitX=0;exitY=1;exitDx=0;exitDy=0;entryX=0.597;entryY=0.05;entryDx=0;entryDy=0;fontSize=10;fontColor=#330066;entryPerimeter=0;strokeColor=#990000;rounded=1;" edge="1" parent="1" target="za_h3nyaj_twxy0oM4vH-31">
          <mxGeometry relative="1" as="geometry">
            <mxPoint x="782" y="220" as="sourcePoint" />
            <mxPoint x="180" y="270" as="targetPoint" />
          </mxGeometry>
        </mxCell>
        <mxCell id="za_h3nyaj_twxy0oM4vH-89" style="edgeStyle=orthogonalEdgeStyle;rounded=1;orthogonalLoop=1;jettySize=auto;html=1;exitX=0.054;exitY=1.06;exitDx=0;exitDy=0;fontSize=10;fontColor=#330066;entryX=0.5;entryY=0;entryDx=0;entryDy=0;fillColor=#d80073;strokeColor=#990000;exitPerimeter=0;" edge="1" parent="1" source="za_h3nyaj_twxy0oM4vH-26" target="za_h3nyaj_twxy0oM4vH-33">
          <mxGeometry relative="1" as="geometry">
            <mxPoint x="792" y="230" as="sourcePoint" />
            <mxPoint x="650" y="270" as="targetPoint" />
            <Array as="points">
              <mxPoint x="779" y="230" />
              <mxPoint x="665" y="230" />
            </Array>
          </mxGeometry>
        </mxCell>
        <mxCell id="za_h3nyaj_twxy0oM4vH-90" style="edgeStyle=orthogonalEdgeStyle;rounded=1;orthogonalLoop=1;jettySize=auto;html=1;exitX=0;exitY=1;exitDx=0;exitDy=0;entryX=0.5;entryY=0;entryDx=0;entryDy=0;fontSize=10;fontColor=#330066;strokeColor=#990000;" edge="1" parent="1" source="za_h3nyaj_twxy0oM4vH-42">
          <mxGeometry relative="1" as="geometry">
            <mxPoint x="785" y="370" as="sourcePoint" />
            <mxPoint x="183" y="420" as="targetPoint" />
          </mxGeometry>
        </mxCell>
        <mxCell id="za_h3nyaj_twxy0oM4vH-91" style="edgeStyle=orthogonalEdgeStyle;orthogonalLoop=1;jettySize=auto;html=1;exitX=0;exitY=1;exitDx=0;exitDy=0;entryX=0.597;entryY=0.05;entryDx=0;entryDy=0;fontSize=10;fontColor=#330066;entryPerimeter=0;strokeColor=#990000;rounded=1;" edge="1" parent="1" source="za_h3nyaj_twxy0oM4vH-42">
          <mxGeometry relative="1" as="geometry">
            <mxPoint x="785" y="375" as="sourcePoint" />
            <mxPoint x="433.9369999999999" y="423" as="targetPoint" />
          </mxGeometry>
        </mxCell>
        <mxCell id="za_h3nyaj_twxy0oM4vH-93" style="edgeStyle=orthogonalEdgeStyle;rounded=1;orthogonalLoop=1;jettySize=auto;html=1;fontSize=10;fontColor=#330066;entryX=0.5;entryY=0;entryDx=0;entryDy=0;fillColor=#d80073;strokeColor=#990000;" edge="1" parent="1">
          <mxGeometry relative="1" as="geometry">
            <mxPoint x="834.02" y="340" as="sourcePoint" />
            <mxPoint x="710" y="425" as="targetPoint" />
            <Array as="points">
              <mxPoint x="824.02" y="340" />
              <mxPoint x="824.02" y="385" />
              <mxPoint x="710.02" y="385" />
            </Array>
          </mxGeometry>
        </mxCell>
      </root>
    </mxGraphModel>
  </diagram>
</mxfile>
